<?xml version="1.0" encoding="utf-8"?>
<!-- Generator: Adobe Illustrator 26.0.1, SVG Export Plug-In . SVG Version: 6.00 Build 0)  -->
<svg version="1.1" id="Слой_1" xmlns="http://www.w3.org/2000/svg" xmlns:xlink="http://www.w3.org/1999/xlink" x="0px" y="0px"
	 viewBox="0 0 1500 1500" style="enable-background:new 0 0 1500 1500;" xml:space="preserve">
<style type="text/css">
	.st0{fill:#38BDF8;}
	.st1{fill:#9CA3AF;}
	.st2{fill:#1BA0CE;}
	.st3{fill:#838C9B;}
	.st4{fill:#B2B8C1;}
	.st5{fill:#70D6F9;}
</style>
<path class="st0" d="M1205.8,1474h-911c-44.9,0-81.3-36.4-81.3-81.3V137.3c0-44.9,36.4-81.3,81.3-81.3h911
	c44.9,0,81.3,36.4,81.3,81.3v1255.3C1287.1,1437.6,1250.7,1474,1205.8,1474z"/>
<path class="st1" d="M302.4,56c-49.1,0-88.9,39.8-88.9,88.9v1240.2c0,49.1,39.8,88.9,88.9,88.9h145V56H302.4z"/>
<path class="st1" d="M1109.3,296.2H536.7c-16.7,0-30.2-13.5-30.2-30.2v-5.6c0-16.7,13.5-30.2,30.2-30.2h572.6
	c16.7,0,30.2,13.5,30.2,30.2v5.6C1139.5,282.7,1126,296.2,1109.3,296.2z"/>
<path class="st1" d="M792.2,424.2H536.7c-16.7,0-30.2-13.5-30.2-30.2v-5.6c0-16.7,13.5-30.2,30.2-30.2h255.6
	c16.7,0,30.2,13.5,30.2,30.2v5.6C822.5,410.6,808.9,424.2,792.2,424.2z"/>
<path class="st2" d="M404.1,1380c-49.1,0-88.9-39.8-88.9-88.9V56h-12.8c-49.1,0-88.9,39.8-88.9,88.9v1240.2
	c0,49.1,39.8,88.9,88.9,88.9h895.8c49.1,0,88.9-39.8,88.9-88.9v-5.1H404.1z"/>
<path class="st3" d="M404.1,1380c-49.1,0-88.9-39.8-88.9-88.9V56h-12.8c-49.1,0-88.9,39.8-88.9,88.9v1240.2
	c0,49.1,39.8,88.9,88.9,88.9h145v-94H404.1z"/>
<path class="st0" d="M327.5,450.7h-157c-31.2,0-56.5-25.3-56.5-56.5v-10.5c0-31.2,25.3-56.5,56.5-56.5h157
	c31.2,0,56.5,25.3,56.5,56.5v10.5C384,425.4,358.7,450.7,327.5,450.7z"/>
<path class="st2" d="M364.9,426.6H218.4c-34.1,0-61.8-27.7-61.8-61.8v0c0-14,4.7-27,12.6-37.4c-31,3.3-55.2,29.5-55.2,61.4v0
	c0,34.1,27.7,61.8,61.8,61.8h146.5c20.1,0,37.9-9.6,49.2-24.4C369.3,426.5,367.1,426.6,364.9,426.6z"/>
<path class="st0" d="M327.5,701h-157c-31.2,0-56.5-25.3-56.5-56.5V634c0-31.2,25.3-56.5,56.5-56.5h157c31.2,0,56.5,25.3,56.5,56.5
	v10.5C384,675.7,358.7,701,327.5,701z"/>
<path class="st0" d="M327.5,951.4h-157c-31.2,0-56.5-25.3-56.5-56.5v-10.5c0-31.2,25.3-56.5,56.5-56.5h157
	c31.2,0,56.5,25.3,56.5,56.5v10.5C384,926.1,358.7,951.4,327.5,951.4z"/>
<path class="st0" d="M327.5,1201.8h-157c-31.2,0-56.5-25.3-56.5-56.5v-10.5c0-31.2,25.3-56.5,56.5-56.5h157
	c31.2,0,56.5,25.3,56.5,56.5v10.5C384,1176.5,358.7,1201.8,327.5,1201.8z"/>
<path class="st4" d="M427.9,919.7h-2.4c-7.2,0-13-5.8-13-13V401.4c0-7.2,5.8-13,13-13h2.4c7.2,0,13,5.8,13,13v505.3
	C440.9,913.9,435.1,919.7,427.9,919.7z"/>
<path class="st5" d="M1248.6,1310h-4.9c-14.6,0-26.5-11.9-26.5-26.5V495.8c0-14.6,11.9-26.5,26.5-26.5h4.9
	c14.6,0,26.5,11.9,26.5,26.5v787.7C1275.1,1298.1,1263.2,1310,1248.6,1310z"/>
<path class="st5" d="M1159.8,124.9h-326c-13.5,0-24.5-11-24.5-24.5v-4.6c0-13.5,11-24.5,24.5-24.5h326c13.5,0,24.5,11,24.5,24.5v4.6
	C1184.3,113.9,1173.4,124.9,1159.8,124.9z"/>
<path class="st2" d="M364.9,677H218.4c-34.1,0-61.8-27.7-61.8-61.8v0c0-14,4.7-27,12.6-37.4c-31,3.3-55.2,29.5-55.2,61.4v0
	c0,34.1,27.7,61.8,61.8,61.8h146.5c20.1,0,37.9-9.6,49.2-24.4C369.3,676.9,367.1,677,364.9,677z"/>
<path class="st2" d="M364.9,927.4H218.4c-34.1,0-61.8-27.7-61.8-61.8v0c0-14,4.7-27,12.6-37.4c-31,3.3-55.2,29.5-55.2,61.4v0
	c0,34.1,27.7,61.8,61.8,61.8h146.5c20.1,0,37.9-9.6,49.2-24.4C369.3,927.2,367.1,927.4,364.9,927.4z"/>
<path class="st2" d="M364.9,1177.7H218.4c-34.1,0-61.8-27.7-61.8-61.8v0c0-14,4.7-27,12.6-37.4c-31,3.3-55.2,29.5-55.2,61.4v0
	c0,34.1,27.7,61.8,61.8,61.8h146.5c20.1,0,37.9-9.6,49.2-24.4C369.3,1177.6,367.1,1177.7,364.9,1177.7z"/>
<path class="st5" d="M303.6,364.3h-77.5c-9.4,0-17-7.6-17-17v-3.2c0-9.4,7.6-17,17-17h77.5c9.4,0,17,7.6,17,17v3.2
	C320.6,356.7,313,364.3,303.6,364.3z"/>
<path class="st5" d="M303.6,614.7h-77.5c-9.4,0-17-7.6-17-17v-3.2c0-9.4,7.6-17,17-17h77.5c9.4,0,17,7.6,17,17v3.2
	C320.6,607.1,313,614.7,303.6,614.7z"/>
<path class="st5" d="M303.6,865h-77.5c-9.4,0-17-7.6-17-17v-3.2c0-9.4,7.6-17,17-17h77.5c9.4,0,17,7.6,17,17v3.2
	C320.6,857.4,313,865,303.6,865z"/>
<path class="st5" d="M303.6,1115.4h-77.5c-9.4,0-17-7.6-17-17v-3.2c0-9.4,7.6-17,17-17h77.5c9.4,0,17,7.6,17,17v3.2
	C320.6,1107.8,313,1115.4,303.6,1115.4z"/>
<path class="st3" d="M1124,282.7H557c-18.2,0-33-14.8-33-33v0c0-6.8,2.1-13.1,5.6-18.4c-13.4,4.2-23.1,16.7-23.1,31.5v0
	c0,18.2,14.8,33,33,33h567c11.4,0,21.5-5.8,27.4-14.6C1130.8,282.1,1127.4,282.7,1124,282.7z"/>
<path class="st3" d="M557,410.6c-18.2,0-33-14.8-33-33v0c0-6.6,1.9-12.7,5.2-17.8c-12.6,4.1-21.9,15.7-22.7,29.4c0,0.3,0,0.5,0,0.8
	c0,0.3,0,0.6,0,0.9c0.1,18.1,14.9,32.8,33,32.8h255.3c8.7-1.4,16.3-6.3,21.3-13.1H557z"/>
<path class="st4" d="M1044.9,256.4H746.5c-6.4,0-11.5-5.1-11.5-11.5v-2.1c0-6.4,5.1-11.5,11.5-11.5h298.4c6.4,0,11.5,5.1,11.5,11.5
	v2.1C1056.4,251.3,1051.3,256.4,1044.9,256.4z"/>
<path class="st4" d="M762.8,383.3h-91.8c-6.4,0-11.5-5.1-11.5-11.5v-2.1c0-6.4,5.1-11.5,11.5-11.5h91.8c6.4,0,11.5,5.1,11.5,11.5
	v2.1C774.3,378.1,769.2,383.3,762.8,383.3z"/>
<g>
	<path class="st2" d="M628.6,843.2c1.3,11.9,7.7,21.5,19,28.9c11.2,7.3,24.9,10.9,41.2,10.9c16.2,0,29.4-3.5,39.6-10.5
		c10.1-6.9,15.2-15.7,15.2-26.5c0-9.4-3.8-17-11.3-22.8c-7.5-5.8-20.1-10.6-37.8-14.6l-38-8.3c-53.5-11.5-80.2-38.6-80.2-81.5
		c0-26.7,10.4-48.3,31.3-64.9c20.8-16.3,47.5-24.5,80.2-24.5c33.7,0,60.6,8,80.9,24.1c19.9,15.9,30.2,37.1,30.7,63.7h-57.2
		c-0.9-12.3-6.4-22-16.4-29.1c-9.8-7-22.4-10.5-37.8-10.5c-15.1,0-27.2,3.3-36.4,9.9c-9.3,6.6-13.9,15.3-13.9,26.1
		c0,8.9,3.8,16.2,11.3,21.8c7.4,5.4,19.5,10,36.4,13.9l35.4,7.5c29.2,6.2,50.5,15.9,63.9,29.1c13.3,13.1,20,30.7,20,53
		c0,28.3-10.6,50.7-31.9,67.3c-21.3,16.7-50.1,25.1-86.3,25.1c-35.2,0-63.1-7.8-83.9-23.4c-20.9-15.8-31.8-37.3-32.7-64.7H628.6z"/>
	<path class="st2" d="M842,926.2V634.6h50.9l136.2,190h1.6v-190h58.4v291.7h-50.5l-136.4-191h-1.8v191H842z"/>
</g>
<g>
	<path class="st5" d="M640.6,832.2c1.3,11.9,7.7,21.5,19,28.9c11.2,7.3,24.9,10.9,41.2,10.9c16.2,0,29.4-3.5,39.6-10.5
		c10.1-6.9,15.2-15.7,15.2-26.5c0-9.4-3.8-17-11.3-22.8c-7.5-5.8-20.1-10.6-37.8-14.6l-38-8.3c-53.5-11.5-80.2-38.6-80.2-81.5
		c0-26.7,10.4-48.3,31.3-64.9c20.8-16.3,47.5-24.5,80.2-24.5c33.7,0,60.6,8,80.9,24.1c19.9,15.9,30.2,37.1,30.7,63.7h-57.2
		c-0.9-12.3-6.4-22-16.4-29.1c-9.8-7-22.4-10.5-37.8-10.5c-15.1,0-27.2,3.3-36.4,9.9c-9.3,6.6-13.9,15.3-13.9,26.1
		c0,8.9,3.8,16.2,11.3,21.8c7.4,5.4,19.5,10,36.4,13.9l35.4,7.5c29.2,6.2,50.5,15.9,63.9,29.1c13.3,13.1,20,30.7,20,53
		c0,28.3-10.6,50.7-31.9,67.3c-21.3,16.7-50.1,25.1-86.3,25.1c-35.2,0-63.1-7.8-83.9-23.4c-20.9-15.8-31.8-37.3-32.7-64.7H640.6z"/>
	<path class="st5" d="M854,915.3V623.6H905l136.2,190h1.6v-190h58.4v291.7h-50.5l-136.4-191h-1.8v191H854z"/>
</g>
</svg>
